<svg width="113" height="69" fill="none" xmlns="http://www.w3.org/2000/svg"><g filter="url(#filter0_d_9_77)" stroke="#FBE308" stroke-linecap="round" stroke-linejoin="round"><path d="M107.624 39.23l-1.16.809-.174.984.809 1.16m.93-2.374l.317 1.072-.087.492-1.16.81m-5.901 7.59l-1.407-.134-.771.637-.135 1.408m2.246-1.207l-.452 1.023-.386.318-1.408-.134m6.766-5.774l-1.414.007-.704.71.007 1.414"/><path d="M105.654 46.617l-.348 1.062-.352.355-1.414.007m-8.172 5.544l-1.082-.911-.996.085-.911 1.082m2.534.285l-.954.583-.498.043-1.082-.91m14.319-17.645l.954.57.156.988.156.987-.314.556m-.952-3.101l-.615.818.156.988.156.987.47.432"/><path d="M103.719 47.948l.073 1.286-.801.599-.801.598-.7-.101m2.229-2.382l-1.124-.316-.802.599-.801.598-.101.7m-8.616 4.601l-.28 1.1-.517.04-.517.042-.298-.477m1.612-.705l-.441-.894-.517.041-.516.042-.218.519m16.079-11.287l.701.79-.408.914-.409.913-1.184.538m1.3-3.155l-1.125-.026-.408.913-.408.913.408 1.174m-6.815 6.156l.022 1.056-.903.431-.902.431-1.252-.357m3.035-1.561l-.84-.748-.903.43-.902.432-.45 1.158"/></g><g filter="url(#filter1_d_9_77)" stroke="#FBE308" stroke-linecap="round" stroke-linejoin="round"><path d="M5.5 39.076l1.159.81.175.984-.81 1.16m-.93-2.375l-.317 1.072.087.493 1.16.81m5.901 7.59l1.407-.135.771.637.135 1.408"/><path d="M11.992 50.324l.452 1.022.386.318 1.408-.134m-6.766-5.774l1.414.007.704.71-.007 1.415m-2.114-1.425l.348 1.063.352.355 1.414.007m8.172 5.543l1.082-.91.996.085.911 1.082m-2.534.284l.954.584.498.042 1.082-.91M5.334 36.02l-.751.733.029 1 .03 1 .373.489m.319-3.222l.686.691.03 1 .029 1-.345.51"/><path d="M9.404 47.794l-.073 1.286.801.599.802.599.7-.102m-2.23-2.382l1.124-.316.802.599.8.598.102.7m8.616 4.6l.46 1.115.767.062.767.062.424-.468m-2.418-.771l.62-.879.767.062.768.062.344.53M6.461 42.398l-.701.79.408.913.409.913 1.184.538m-1.3-3.154l1.125-.026.408.913.408.912-.408 1.174m6.816 6.157l-.023 1.056.903.43.902.432 1.252-.358m-3.034-1.56l.84-.749.902.431.902.431.45 1.159"/></g><path d="M3.658 37l11.856-26.6h6.08L33.488 37h-6.46L17.3 13.516h2.432L9.966 37H3.658zm5.928-5.7l1.634-4.674H24.9l1.672 4.674H9.586zM36.248 37V10.4h6.156v21.584h13.338V37H36.248zm28.595-15.884H77.65v4.788H64.843v-4.788zM65.3 32.06h14.478V37H59.181V10.4h20.102v4.94H65.3v16.72zM81.376 37l11.438-15.77v4.484L81.87 10.4h6.992l7.562 10.678-2.926.038 7.448-10.716h6.688L96.766 25.448V21.04L108.28 37h-7.106l-7.828-11.286h2.812L88.444 37h-7.068z" fill="#313060"/><g filter="url(#filter2_d_9_77)"><path d="M26.222 58v-9.1h3.744c.806 0 1.495.13 2.067.39.58.26 1.027.633 1.339 1.118.312.485.468 1.062.468 1.729s-.156 1.244-.468 1.729c-.312.477-.758.845-1.339 1.105-.572.251-1.261.377-2.067.377h-2.808l.754-.767V58h-1.69zm5.954 0l-2.301-3.302h1.807L33.996 58h-1.82zm-4.264-3.237l-.754-.806h2.73c.745 0 1.304-.16 1.677-.481.381-.32.572-.767.572-1.339 0-.58-.19-1.027-.572-1.339-.373-.312-.932-.468-1.677-.468h-2.73l.754-.832v5.265zM34.444 58l4.095-9.1h1.664L44.31 58h-1.768l-3.523-8.203h.676L36.186 58h-1.742zm1.885-2.106l.455-1.326h4.914l.455 1.326h-5.824zM45.469 58v-9.1h3.743c.806 0 1.495.13 2.067.39.58.26 1.027.633 1.34 1.118.311.485.467 1.062.467 1.729s-.156 1.244-.468 1.729c-.312.485-.758.858-1.339 1.118-.572.26-1.26.39-2.067.39h-2.808l.754-.793V58h-1.69zm1.69-3.237l-.755-.819h2.73c.745 0 1.304-.156 1.677-.468.381-.32.572-.767.572-1.339 0-.58-.19-1.027-.572-1.339-.373-.312-.932-.468-1.677-.468h-2.73l.754-.832v5.265zm15.586 3.367a5.53 5.53 0 01-1.963-.338 4.837 4.837 0 01-1.547-.975 4.474 4.474 0 01-1.027-1.495 4.743 4.743 0 01-.364-1.872c0-.676.12-1.3.364-1.872a4.336 4.336 0 011.026-1.482 4.66 4.66 0 011.573-.975 5.342 5.342 0 011.963-.351c.772 0 1.465.126 2.08.377a4.08 4.08 0 011.574 1.105l-1.067 1.04a3.414 3.414 0 00-1.156-.78 3.42 3.42 0 00-1.352-.26c-.477 0-.92.078-1.326.234a3.067 3.067 0 00-1.054.663 3.05 3.05 0 00-.688 1.014c-.157.39-.234.819-.234 1.287 0 .46.078.884.234 1.274.164.39.394.732.688 1.027.295.286.642.507 1.04.663.4.156.841.234 1.327.234.45 0 .883-.07 1.3-.208.424-.147.827-.39 1.209-.728l.962 1.261a5.075 5.075 0 01-1.665.871 6.46 6.46 0 01-1.897.286zm1.962-1.378v-3.406h1.6v3.627l-1.6-.221zM72.8 58.13a5.34 5.34 0 01-1.963-.351 4.803 4.803 0 01-1.56-.975 4.508 4.508 0 01-1.028-1.482 4.743 4.743 0 01-.364-1.872c0-.676.122-1.296.364-1.859a4.335 4.335 0 011.028-1.482 4.692 4.692 0 011.56-.988 5.305 5.305 0 011.95-.351c.71 0 1.36.117 1.95.351a4.692 4.692 0 011.56.988c.442.416.784.91 1.026 1.482.243.563.365 1.183.365 1.859 0 .676-.122 1.3-.365 1.872a4.336 4.336 0 01-1.026 1.482 4.803 4.803 0 01-1.56.975 5.204 5.204 0 01-1.938.351zm-.013-1.482a3.4 3.4 0 001.273-.234c.39-.156.728-.377 1.014-.663a3.27 3.27 0 00.911-2.301c0-.468-.083-.893-.248-1.274a2.983 2.983 0 00-.662-1.014 2.892 2.892 0 00-1.014-.676 3.4 3.4 0 00-1.275-.234 3.4 3.4 0 00-1.273.234 3.04 3.04 0 00-1.014.676 3.149 3.149 0 00-.676 1.014 3.336 3.336 0 00-.234 1.274c0 .46.078.884.234 1.274.164.39.39.732.676 1.027.285.286.624.507 1.014.663a3.4 3.4 0 001.273.234zM79.478 58v-9.1h3.978c.988 0 1.855.19 2.6.572a4.29 4.29 0 011.742 1.586c.416.676.624 1.473.624 2.392 0 .91-.208 1.707-.624 2.392a4.29 4.29 0 01-1.742 1.586c-.746.381-1.612.572-2.6.572h-3.978zm1.69-1.43h2.21c.684 0 1.274-.13 1.768-.39a2.77 2.77 0 001.157-1.092c.277-.468.416-1.014.416-1.638 0-.633-.139-1.179-.416-1.638a2.763 2.763 0 00-1.157-1.092c-.494-.26-1.084-.39-1.768-.39h-2.21v6.24z" fill="#FBE308"/></g><path d="M55.5 51l.561 1.727h1.817l-1.47 1.068.561 1.727-1.469-1.067-1.47 1.068.562-1.728-1.47-1.068h1.817L55.5 51z" fill="#FBE308"/><g filter="url(#filter3_d_9_77)"><rect x="23.5" y="45.5" width="67" height="17" rx="1.5" stroke="#FBE308" stroke-linecap="square" stroke-linejoin="round" shape-rendering="crispEdges"/></g><defs><filter id="filter0_d_9_77" x="86.083" y="35.697" width="26.764" height="28.115" filterUnits="userSpaceOnUse" color-interpolation-filters="sRGB"><feFlood flood-opacity="0" result="BackgroundImageFix"/><feColorMatrix in="SourceAlpha" values="0 0 0 0 0 0 0 0 0 0 0 0 0 0 0 0 0 0 127 0" result="hardAlpha"/><feOffset dy="4"/><feGaussianBlur stdDeviation="2"/><feComposite in2="hardAlpha" operator="out"/><feColorMatrix values="0 0 0 0 0.983333 0 0 0 0 0.888278 0 0 0 0 0.0327778 0 0 0 0.23 0"/><feBlend in2="BackgroundImageFix" result="effect1_dropShadow_9_77"/><feBlend in="SourceGraphic" in2="effect1_dropShadow_9_77" result="shape"/></filter><filter id="filter1_d_9_77" x=".083" y="35.52" width="27.764" height="28.194" filterUnits="userSpaceOnUse" color-interpolation-filters="sRGB"><feFlood flood-opacity="0" result="BackgroundImageFix"/><feColorMatrix in="SourceAlpha" values="0 0 0 0 0 0 0 0 0 0 0 0 0 0 0 0 0 0 127 0" result="hardAlpha"/><feOffset dy="4"/><feGaussianBlur stdDeviation="2"/><feComposite in2="hardAlpha" operator="out"/><feColorMatrix values="0 0 0 0 0.983333 0 0 0 0 0.888278 0 0 0 0 0.0327778 0 0 0 0.28 0"/><feBlend in2="BackgroundImageFix" result="effect1_dropShadow_9_77"/><feBlend in="SourceGraphic" in2="effect1_dropShadow_9_77" result="shape"/></filter><filter id="filter2_d_9_77" x="20.222" y="44.77" width="74.201" height="21.36" filterUnits="userSpaceOnUse" color-interpolation-filters="sRGB"><feFlood flood-opacity="0" result="BackgroundImageFix"/><feColorMatrix in="SourceAlpha" values="0 0 0 0 0 0 0 0 0 0 0 0 0 0 0 0 0 0 127 0" result="hardAlpha"/><feOffset dy="2"/><feGaussianBlur stdDeviation="3"/><feComposite in2="hardAlpha" operator="out"/><feColorMatrix values="0 0 0 0 0.983333 0 0 0 0 0.888278 0 0 0 0 0.0327778 0 0 0 0.33 0"/><feBlend in2="BackgroundImageFix" result="effect1_dropShadow_9_77"/><feBlend in="SourceGraphic" in2="effect1_dropShadow_9_77" result="shape"/></filter><filter id="filter3_d_9_77" x="19" y="43" width="76" height="26" filterUnits="userSpaceOnUse" color-interpolation-filters="sRGB"><feFlood flood-opacity="0" result="BackgroundImageFix"/><feColorMatrix in="SourceAlpha" values="0 0 0 0 0 0 0 0 0 0 0 0 0 0 0 0 0 0 127 0" result="hardAlpha"/><feOffset dy="2"/><feGaussianBlur stdDeviation="2"/><feComposite in2="hardAlpha" operator="out"/><feColorMatrix values="0 0 0 0 0.983333 0 0 0 0 0.888278 0 0 0 0 0.0327778 0 0 0 0.33 0"/><feBlend in2="BackgroundImageFix" result="effect1_dropShadow_9_77"/><feBlend in="SourceGraphic" in2="effect1_dropShadow_9_77" result="shape"/></filter></defs></svg>